<svg width="1em" height="1em" viewBox="0 0 26 36" fill="currentColor" xmlns="http://www.w3.org/2000/svg">
<path d="M12.75 14.7374C12.6374 14.5573 12.4808 14.4088 12.2949 14.306C12.109 14.2032 11.8999 14.1495 11.6875 14.1499H1.75C1.41848 14.1499 1.10054 14.2816 0.866117 14.516C0.631696 14.7504 0.5 15.0684 0.5 15.3999V34.2499C0.5 34.5814 0.631696 34.8994 0.866117 35.1338C1.10054 35.3682 1.41848 35.4999 1.75 35.4999H11.75C12.0815 35.4999 12.3995 35.3682 12.6339 35.1338C12.8683 34.8994 13 34.5814 13 34.2499V15.4999C12.9782 15.2295 12.8925 14.9682 12.75 14.7374ZM8 30.4999H5.5C5.16848 30.4999 4.85054 30.3682 4.61612 30.1338C4.3817 29.8994 4.25 29.5814 4.25 29.2499C4.25 28.9184 4.3817 28.6004 4.61612 28.366C4.85054 28.1316 5.16848 27.9999 5.5 27.9999H8C8.33152 27.9999 8.64946 28.1316 8.88388 28.366C9.1183 28.6004 9.25 28.9184 9.25 29.2499C9.25 29.5814 9.1183 29.8994 8.88388 30.1338C8.64946 30.3682 8.33152 30.4999 8 30.4999ZM8 26.1249H5.5C5.16848 26.1249 4.85054 25.9932 4.61612 25.7588C4.3817 25.5244 4.25 25.2064 4.25 24.8749C4.25 24.5434 4.3817 24.2254 4.61612 23.991C4.85054 23.7566 5.16848 23.6249 5.5 23.6249H8C8.33152 23.6249 8.64946 23.7566 8.88388 23.991C9.1183 24.2254 9.25 24.5434 9.25 24.8749C9.25 25.2064 9.1183 25.5244 8.88388 25.7588C8.64946 25.9932 8.33152 26.1249 8 26.1249ZM8 21.7499H5.5C5.16848 21.7499 4.85054 21.6182 4.61612 21.3838C4.3817 21.1494 4.25 20.8314 4.25 20.4999C4.25 20.1684 4.3817 19.8504 4.61612 19.616C4.85054 19.3816 5.16848 19.2499 5.5 19.2499H8C8.33152 19.2499 8.64946 19.3816 8.88388 19.616C9.1183 19.8504 9.25 20.1684 9.25 20.4999C9.25 20.8314 9.1183 21.1494 8.88388 21.3838C8.64946 21.6182 8.33152 21.7499 8 21.7499Z" fill="currentColor"/>
<path d="M24.25 14.1499H13.85C14.0932 14.5598 14.2306 15.0237 14.25 15.4999V34.2499C14.2454 34.6901 14.1247 35.1213 13.9 35.4999H24.25C24.5815 35.4999 24.8995 35.3682 25.1339 35.1338C25.3683 34.8994 25.5 34.5814 25.5 34.2499V15.3999C25.5 15.0684 25.3683 14.7504 25.1339 14.516C24.8995 14.2816 24.5815 14.1499 24.25 14.1499Z" fill="currentColor"/>
<path d="M11.75 12.9002L7.8375 6.12523C7.72762 5.9358 7.5699 5.77857 7.38014 5.66927C7.19038 5.55997 6.97524 5.50244 6.75625 5.50244C6.53726 5.50244 6.32212 5.55997 6.13236 5.66927C5.9426 5.77857 5.78488 5.9358 5.675 6.12523L1.75 12.9002H11.75Z" fill="currentColor"/>
<path d="M13.1375 12.9H24.25L20.3375 6.12501C20.2274 5.93425 20.0688 5.77599 19.8778 5.66623C19.6868 5.55648 19.4703 5.49914 19.25 5.50001H8.92499L13.1375 12.9Z" fill="currentColor"/>
<path d="M6.75 4.25H6.9H19.25C19.6891 4.25078 20.1202 4.36718 20.5 4.5875V1.75C20.5 1.41848 20.3683 1.10054 20.1339 0.866116C19.8995 0.631696 19.5815 0.5 19.25 0.5H6.75C6.41848 0.5 6.10054 0.631696 5.86612 0.866116C5.6317 1.10054 5.5 1.41848 5.5 1.75V4.5875C5.8798 4.36718 6.31093 4.25078 6.75 4.25Z" fill="currentColor"/>
</svg>
