<svg width="1em" height="1em" viewBox="0 0 53 47" fill="currentColor" xmlns="http://www.w3.org/2000/svg">
<path d="M17.775 15.0639C17.6737 14.9018 17.5327 14.7682 17.3654 14.6756C17.1981 14.5831 17.0099 14.5348 16.8187 14.5352H7.875C7.57663 14.5352 7.29048 14.6537 7.07951 14.8647C6.86853 15.0756 6.75 15.3618 6.75 15.6602V32.6252C6.75 32.9235 6.86853 33.2097 7.07951 33.4207C7.29048 33.6316 7.57663 33.7502 7.875 33.7502H16.875C17.1734 33.7502 17.4595 33.6316 17.6705 33.4207C17.8815 33.2097 18 32.9235 18 32.6252V15.7502C17.9804 15.5068 17.9033 15.2716 17.775 15.0639ZM13.5 29.2502H11.25C10.9516 29.2502 10.6655 29.1316 10.4545 28.9207C10.2435 28.7097 10.125 28.4235 10.125 28.1252C10.125 27.8268 10.2435 27.5406 10.4545 27.3297C10.6655 27.1187 10.9516 27.0002 11.25 27.0002H13.5C13.7984 27.0002 14.0845 27.1187 14.2955 27.3297C14.5065 27.5406 14.625 27.8268 14.625 28.1252C14.625 28.4235 14.5065 28.7097 14.2955 28.9207C14.0845 29.1316 13.7984 29.2502 13.5 29.2502ZM13.5 25.3127H11.25C10.9516 25.3127 10.6655 25.1941 10.4545 24.9832C10.2435 24.7722 10.125 24.486 10.125 24.1877C10.125 23.8893 10.2435 23.6031 10.4545 23.3922C10.6655 23.1812 10.9516 23.0627 11.25 23.0627H13.5C13.7984 23.0627 14.0845 23.1812 14.2955 23.3922C14.5065 23.6031 14.625 23.8893 14.625 24.1877C14.625 24.486 14.5065 24.7722 14.2955 24.9832C14.0845 25.1941 13.7984 25.3127 13.5 25.3127ZM13.5 21.3752H11.25C10.9516 21.3752 10.6655 21.2566 10.4545 21.0457C10.2435 20.8347 10.125 20.5485 10.125 20.2502C10.125 19.9518 10.2435 19.6656 10.4545 19.4547C10.6655 19.2437 10.9516 19.1252 11.25 19.1252H13.5C13.7984 19.1252 14.0845 19.2437 14.2955 19.4547C14.5065 19.6656 14.625 19.9518 14.625 20.2502C14.625 20.5485 14.5065 20.8347 14.2955 21.0457C14.0845 21.2566 13.7984 21.3752 13.5 21.3752Z" fill="currentColor"/>
<path d="M28.125 14.5352H18.765C18.9839 14.9041 19.1076 15.3216 19.125 15.7502V32.6252C19.1209 33.0214 19.0122 33.4094 18.81 33.7502H28.125C28.4234 33.7502 28.7095 33.6316 28.9205 33.4207C29.1315 33.2097 29.25 32.9235 29.25 32.6252V15.6602C29.25 15.3618 29.1315 15.0756 28.9205 14.8647C28.7095 14.6537 28.4234 14.5352 28.125 14.5352Z" fill="currentColor"/>
<path d="M16.875 13.41L13.3537 7.31246C13.2549 7.14198 13.1129 7.00047 12.9421 6.9021C12.7713 6.80373 12.5777 6.75195 12.3806 6.75195C12.1835 6.75195 11.9899 6.80373 11.8191 6.9021C11.6483 7.00047 11.5064 7.14198 11.4075 7.31246L7.875 13.41H16.875Z" fill="currentColor"/>
<path d="M18.1237 13.41H28.125L24.6037 7.31251C24.5046 7.14083 24.3619 6.99839 24.19 6.89961C24.0182 6.80083 23.8232 6.74922 23.625 6.75001H14.3325L18.1237 13.41Z" fill="currentColor"/>
<path d="M12.375 5.625H12.51H23.625C24.0202 5.6257 24.4082 5.73046 24.75 5.92875V3.375C24.75 3.07663 24.6315 2.79048 24.4205 2.5795C24.2095 2.36853 23.9234 2.25 23.625 2.25H12.375C12.0766 2.25 11.7905 2.36853 11.5795 2.5795C11.3685 2.79048 11.25 3.07663 11.25 3.375V5.92875C11.5918 5.73046 11.9798 5.6257 12.375 5.625Z" fill="currentColor"/>
<g clip-path="url(#clip0_104_1477)">
<path d="M35.6019 43.0105C32.8593 42.6063 30.6908 41.3517 29.3298 39.3819C27.9416 37.3719 27.4499 34.6689 27.9074 31.5647C28.3384 28.6406 29.9397 25.5451 32.301 23.068C34.6166 20.6375 37.138 19.3567 39.0469 19.6381C40.9558 19.9194 43.0004 21.8732 44.5163 24.8685C46.0625 27.9215 46.7025 31.3473 46.2715 34.2715C45.814 37.3757 44.5632 39.8219 42.6542 41.3459C40.7827 42.8392 38.3445 43.4148 35.6019 43.0105Z" fill="currentColor"/>
</g>
<defs>
<clipPath id="clip0_104_1477">
<rect width="27" height="27" fill="currentColor" transform="translate(25.9373 16) rotate(8.38477)"/>
</clipPath>
</defs>
</svg>
